#!OML:ASF F:\VICON\USERDATA\INSTALL\rory3\rory3.ASF
:FULLY-SPECIFIED
:DEGREES
267
root 3.01479 16.7443 -0.133714 15.2285 5.58908 10.7223
lowerback -6.34905 1.39784 -0.760678
upperback -2.18478 2.07365 -7.31635
thorax 1.54839 1.04495 -7.05605
lowerneck -2.44382 14.3242 5.4324
upperneck 47.0433 23.8955 -2.10982
head 19.8345 10.4636 2.05257
rclavicle 1.51573e-014 2.06736e-014
rhumerus -36.0301 3.84236 -93.7762
rradius 42.2116
rwrist -38.5839
rhand -9.71897 -48.7892
rfingers 7.12502
rthumb 16.2543 -78.1278
lclavicle 1.51573e-014 2.06736e-014
lhumerus -27.678 -20.1048 81.2114
lradius 41.5693
lwrist 74.9014
lhand -39.145 -11.9796
lfingers 7.12502
lthumb -12.1435 17.6479
rfemur -50.6338 23.8463 -6.18796
rtibia 73.7709
rfoot 3.58828 9.34037
rtoes -42.0542
lfemur -32.4577 -6.88782 -36.1492
ltibia 38.369
lfoot -16.5914 10.1185
ltoes 5.22773
268
root 3.01573 16.7469 -0.13387 15.2358 5.57285 10.7182
lowerback -6.3129 1.40087 -0.751166
upperback -2.23126 2.07245 -7.32581
thorax 1.48044 1.04283 -7.07301
lowerneck -2.31302 14.3239 5.55917
upperneck 47.0448 23.8852 -2.13285
head 19.8321 10.4839 2.01139
rclavicle -9.98893e-015 4.13472e-014
rhumerus -36.0558 3.83511 -93.8051
rradius 42.1661
rwrist -38.602
rhand -9.78529 -49.1103
rfingers 7.12502
rthumb 16.1904 -78.4541
lclavicle -9.98893e-015 4.13472e-014
lhumerus -27.7585 -20.19 81.2566
lradius 41.5375
lwrist 74.8395
lhand -38.3431 -12.4669
lfingers 7.12502
lthumb -11.3702 17.2048
rfemur -50.6354 23.8321 -6.20299
rtibia 73.747
rfoot 3.34007 9.5702
rtoes -42.2878
lfemur -32.4451 -6.94079 -36.14
ltibia 38.3165
lfoot -16.5582 10.1763
ltoes 5.03734
269
root 3.01729 16.7517 -0.134507 15.2445 5.57735 10.6997
lowerback -6.26537 1.38139 -0.715141
upperback -2.2735 2.03852 -7.31125
thorax 1.40672 1.02406 -7.08222
lowerneck -2.19896 14.3386 5.59847
upperneck 47.1107 23.8966 -2.09163
head 19.8472 10.5022 2.01853
rclavicle 4.02539e-015 8.42847e-014
rhumerus -36.107 3.88518 -93.8166
rradius 42.2029
rwrist -38.6117
rhand -9.79016 -49.3135
rfingers 7.12502
rthumb 16.1857 -78.6578
lclavicle 4.02539e-015 8.42847e-014
lhumerus -27.7739 -20.1558 81.2768
lradius 41.5183
lwrist 74.7967
lhand -38.1684 -12.5832
lfingers 7.12502
lthumb -11.2017 17.0977
rfemur -50.5935 23.864 -6.19746
rtibia 73.6958
rfoot 3.65461 9.27789
rtoes -41.3721
lfemur -32.4279 -7.05928 -36.1004
ltibia 38.2593
lfoot -16.5191 10.2558
ltoes 5.00056
270
root 3.01616 16.7549 -0.134168 15.2318 5.65199 10.6493
lowerback -6.21176 1.34521 -0.645039
upperback -2.32574 1.97914 -7.28684
thorax 1.31692 0.992 -7.10274
lowerneck -2.11527 14.3561 5.58642
upperneck 47.1951 23.894 -1.98398
head 19.854 10.5129 2.06214
rclavicle 2.40032e-014 3.89618e-014
rhumerus -36.2256 3.90642 -93.8497
rradius 42.2935
rwrist -38.5545
rhand -9.8018 -49.4936
rfingers 7.12502
rthumb 16.1745 -78.8388
lclavicle 2.40032e-014 3.89618e-014
lhumerus -27.9547 -20.0839 81.2956
lradius 41.6901
lwrist 74.6908
lhand -38.7072 -12.3202
lfingers 7.12502
lthumb -11.7213 17.3319
rfemur -50.5111 23.8831 -6.09848
rtibia 73.6566
rfoot 3.98202 8.93763
rtoes -40.7144
lfemur -32.3745 -7.15376 -36.0149
ltibia 38.2126
lfoot -16.4828 10.268
ltoes 5.05463
271
root 3.01216 16.7568 -0.13165 15.1811 5.71374 10.6597
lowerback -6.12012 1.3514 -0.644768
upperback -2.35367 1.98191 -7.31346
thorax 1.23802 0.992066 -7.1334
lowerneck -2.15056 14.3252 5.57853
upperneck 47.2762 23.8075 -1.85844
head 19.8786 10.487 2.11132
rclavicle 3.18055e-014 -1.03368e-014
rhumerus -36.3201 3.82641 -93.8863
rradius 42.3501
rwrist -38.5186
rhand -9.83946 -49.629
rfingers 7.12502
rthumb 16.1382 -78.9771
lclavicle 3.18055e-014 -1.03368e-014
lhumerus -28.1324 -20.201 81.3311
lradius 41.8718
lwrist 74.5895
lhand -39.3021 -11.8803
lfingers 7.12502
lthumb -12.295 17.7383
rfemur -50.4048 23.8898 -6.02693
rtibia 73.6455
rfoot 3.98549 8.87967
rtoes -40.7721
lfemur -32.288 -7.16132 -36.0066
ltibia 38.2043
lfoot -16.4495 10.2482
ltoes 4.99198
272
root 3.00805 16.7563 -0.130972 15.1789 5.62671 10.6974
lowerback -6.20648 1.39079 -0.765261
upperback -2.31547 2.04869 -7.31972
thorax 1.33005 1.02771 -7.06305
lowerneck -2.23569 14.2867 5.54672
upperneck 47.3059 23.7266 -1.79811
head 19.893 10.4514 2.13807
rclavicle 3.44891e-014 5.88403e-014
rhumerus -36.2534 3.88063 -93.9028
rradius 42.3366
rwrist -38.5797
rhand -9.79489 -49.6317
rfingers 7.12502
rthumb 16.1812 -78.9764
lclavicle 3.44891e-014 5.88403e-014
lhumerus -28.0846 -20.36 81.3754
lradius 41.8617
lwrist 74.6916
lhand -39.0887 -12.3407
lfingers 7.12502
lthumb -12.0892 17.2901
rfemur -50.4503 23.9535 -6.08754
rtibia 73.6508
rfoot 3.97356 8.87779
rtoes -40.9463
lfemur -32.3188 -7.08927 -36.0507
ltibia 38.2495
lfoot -16.4517 10.2977
ltoes 4.92453
273
root 3.00412 16.7519 -0.132953 15.2459 5.50941 10.6093
lowerback -6.0975 1.42836 -0.694499
upperback -2.47459 2.07972 -7.3564
thorax 1.11138 1.0381 -7.14524
lowerneck -2.22183 14.2976 5.58658
upperneck 47.4531 23.6903 -1.61956
head 19.9519 10.4565 2.21392
rclavicle 8.74653e-015 -3.18055e-014
rhumerus -36.4209 3.84184 -94.0531
rradius 42.3175
rwrist -38.536
rhand -9.58341 -49.7255
rfingers 7.12502
rthumb 16.3848 -79.0534
lclavicle 8.74653e-015 -3.18055e-014
lhumerus -28.2675 -20.5529 81.3641
lradius 41.8217
lwrist 74.8259
lhand -38.7439 -12.7875
lfingers 7.12502
lthumb -11.7567 16.8626
rfemur -50.6594 23.9403 -6.06192
rtibia 73.6843
rfoot 3.92214 9.06558
rtoes -41.4964
lfemur -32.4995 -7.01876 -35.9537
ltibia 38.3487
lfoot -16.4945 10.3259
ltoes 5.05301
274
root 3.00108 16.7488 -0.134463 15.2667 5.45738 10.5936
lowerback -6.21943 1.43031 -0.708954
upperback -2.43854 2.09189 -7.37233
thorax 1.21839 1.0462 -7.15031
lowerneck -2.272 14.3175 5.62394
upperneck 47.4546 23.7105 -1.61372
head 19.9733 10.4659 2.22193
rclavicle -2.65874e-014 4.45278e-014
rhumerus -36.3517 3.74709 -94.084
rradius 42.29
rwrist -38.2496
rhand -9.44269 -50.1418
rfingers 7.12502
rthumb 16.5203 -79.4585
lclavicle -2.65874e-014 4.45278e-014
lhumerus -28.1906 -20.5736 81.2946
lradius 41.8321
lwrist 74.799
lhand -39.1173 -12.2538
lfingers 7.12502
lthumb -12.1168 17.3754
rfemur -50.7438 23.8121 -6.03135
rtibia 73.727
rfoot 4.23264 8.85708
rtoes -40.2494
lfemur -32.6459 -7.01734 -35.9109
ltibia 38.4718
lfoot -16.6491 10.1758
ltoes 6.31798
275
root 2.99898 16.7459 -0.135164 15.249 5.39974 10.6468
lowerback -6.0113 1.46285 -0.751517
upperback -2.54366 2.12179 -7.43104
thorax 0.997285 1.0571 -7.19242
lowerneck -2.28665 14.3045 5.69941
upperneck 47.5202 23.67 -1.55135
head 20.0196 10.4648 2.24056
rclavicle 2.67365e-014 -4.05521e-014
rhumerus -36.5183 3.60433 -94.1144
rradius 42.2991
rwrist -38.0307
rhand -9.54856 -50.305
rfingers 7.12502
rthumb 16.4183 -79.6302
lclavicle 2.67365e-014 -4.05521e-014
lhumerus -28.3454 -20.6446 81.3068
lradius 41.9047
lwrist 74.8354
lhand -39.1841 -12.5192
lfingers 7.12502
lthumb -12.1812 17.1062
rfemur -50.7357 23.7524 -6.0703
rtibia 73.7565
rfoot 4.63433 8.27655
rtoes -37.7059
lfemur -32.7255 -7.01639 -35.9519
ltibia 38.5813
lfoot -16.8143 10.0809
ltoes 7.43472
276
root 2.99671 16.7403 -0.134565 15.1877 5.3491 10.5882
lowerback -5.92197 1.49038 -0.706939
upperback -2.54809 2.15135 -7.42729
thorax 0.947842 1.07112 -7.21392
lowerneck -2.30068 14.2877 5.71916
upperneck 47.4676 23.6386 -1.5774
head 19.9936 10.4549 2.21831
rclavicle -4.74598e-014 1.43125e-014
rhumerus -36.5185 3.64137 -94.1641
rradius 42.2652
rwrist -38.0096
rhand -9.66672 -50.0539
rfingers 7.12502
rthumb 16.3046 -79.3884
lclavicle -4.74598e-014 1.43125e-014
lhumerus -28.3512 -20.6334 81.2841
lradius 41.9401
lwrist 74.9168
lhand -38.6681 -13.2032
lfingers 7.12502
lthumb -11.6836 16.451
rfemur -50.7074 23.8295 -6.00028
rtibia 73.7739
rfoot 4.66464 8.05535
rtoes -36.9117
lfemur -32.6791 -6.94423 -35.9126
ltibia 38.6247
lfoot -16.7817 10.2442
ltoes 6.31964
277
root 2.99592 16.7376 -0.132796 15.1283 5.2825 10.591
lowerback -5.90201 1.52076 -0.712295
upperback -2.5182 2.19363 -7.44022
thorax 0.973161 1.09328 -7.22165
lowerneck -2.23843 14.2504 5.69331
upperneck 47.2906 23.5847 -1.67918
head 19.8678 10.4327 2.14431
rclavicle 4.1546e-014 -3.26007e-014
rhumerus -36.4828 3.62208 -94.178
rradius 42.2476
rwrist -37.9469
rhand -9.72989 -49.9048
rfingers 7.12502
rthumb 16.2437 -79.2443
lclavicle 4.1546e-014 -3.26007e-014
lhumerus -28.2528 -20.7061 81.2611
lradius 41.9132
lwrist 74.9314
lhand -38.4527 -12.918
lfingers 7.12502
lthumb -11.4759 16.7479
rfemur -50.657 23.9161 -6.00595
rtibia 73.7464
rfoot 4.52387 8.18086
rtoes -37.6448
lfemur -32.5045 -6.84731 -35.9539
ltibia 38.4465
lfoot -16.6395 10.3316
ltoes 5.24657
278
root 3.00024 16.7413 -0.129246 15.117 5.28669 10.7942
lowerback -5.9037 1.50452 -0.824922
upperback -2.49965 2.18119 -7.52798
thorax 0.991047 1.08808 -7.25207
lowerneck -2.24516 14.2365 5.62049
upperneck 47.2256 23.5479 -1.66201
head 19.801 10.4132 2.14764
rclavicle 5.40197e-014 -4.85035e-014
rhumerus -36.4956 3.66644 -94.2429
rradius 42.3275
rwrist -38.1448
rhand -9.61464 -49.7755
rfingers 7.12502
rthumb 16.3547 -79.1059
lclavicle 5.40197e-014 -4.85035e-014
lhumerus -28.166 -20.7391 81.2139
lradius 41.8678
lwrist 74.9257
lhand -38.799 -12.1935
lfingers 7.12502
lthumb -11.8098 17.4535
rfemur -50.5254 23.7975 -6.18789
rtibia 73.7304
rfoot 4.00849 8.69525
rtoes -39.5677
lfemur -32.4106 -6.91805 -36.1734
ltibia 38.3936
lfoot -16.7345 10.2096
ltoes 6.31451
279
root 3.00108 16.7698 -0.104995 14.2681 6.53587 11.2761
lowerback -5.22912 1.06606 -1.0216
upperback -2.07405 1.59823 -7.58259
thorax 0.9815 0.800751 -7.24566
lowerneck -2.38737 14.2591 5.57608
upperneck 47.3216 23.5711 -1.56911
head 19.8748 10.4114 2.22167
rclavicle 2.35063e-014 8.74653e-015
rhumerus -36.4358 3.74847 -94.316
rradius 42.3617
rwrist -38.3377
rhand -9.18235 -49.962
rfingers 7.12502
rthumb 16.7709 -79.2577
lclavicle 2.35063e-014 8.74653e-015
lhumerus -28.1206 -20.6917 81.1536
lradius 41.8611
lwrist 74.9465
lhand -39.1054 -11.8149
lfingers 7.12502
lthumb -12.1053 17.8149
rfemur -48.3968 23.3052 -5.54488
rtibia 73.6061
rfoot 2.93053 8.88524
rtoes -41.9484
lfemur -30.9684 -7.62355 -36.5143
ltibia 38.2571
lfoot -16.9075 9.83987
ltoes 7.20593
